<?xml version="1.0" standalone="no"?><!DOCTYPE svg PUBLIC "-//W3C//DTD SVG 1.1//EN" "http://www.w3.org/Graphics/SVG/1.1/DTD/svg11.dtd"><svg t="1615429112871" class="icon" viewBox="0 0 1024 1024" version="1.1" xmlns="http://www.w3.org/2000/svg" p-id="3013" xmlns:xlink="http://www.w3.org/1999/xlink" width="200" height="200"><defs><style type="text/css"></style></defs><path d="M415.1 926.8c-19.7 0-39.5-2-59.2-6.1-37.5-7.8-72.6-22.8-104.3-44.4-32.7-22.4-60.3-51-82-84.9-42.7-66.9-57.3-147-41.1-225.4 16.2-78.5 61.2-146 126.9-190.2 49.9-33.6 107.6-50.8 167-49.8 57.9 1 113.7 19.1 161.2 52.5 13.6 9.5 16.8 28.2 7.3 41.8-9.5 13.6-28.2 16.8-41.8 7.3-78.2-54.9-180.4-55.7-260.2-2-108.4 72.9-139.2 222.6-68.5 333.4 34.2 53.6 86.7 90.1 147.9 102.9 60.8 12.7 123 0.3 175.2-34.8 108.6-73.1 139.4-222.7 68.7-333.6l-13.4-21L853.5 234c12.1-11.3 31.1-10.7 42.4 1.4 11.3 12.1 10.7 31.1-1.4 42.4L675.3 483c32.8 62.2 42.9 133.6 28.5 203.7-16.2 78.5-61.2 146-126.9 190.2-48.8 32.8-104.7 49.9-161.8 49.9z" fill="#1D1D1D" p-id="3014"></path><path d="M873.8 463.3c-16.6 0-30-13.4-30-30V286H698.3c-16.6 0-30-13.4-30-30s13.4-30 30-30h205.5v207.4c0 16.5-13.4 29.9-30 29.9z" fill="#1D1D1D" p-id="3015"></path></svg>